<svg width="40" height="40" viewBox="0 0 40 40" fill="none" xmlns="http://www.w3.org/2000/svg">
    <path d="M39.41833 5.461667c-0.4166667 0.0033 -1.6816666 0.095 -5.783334 0.3766667l-15.188333 1.045c-5.073333 0.3466667 -4.571666 0.3 -4.8133335 0.45000000000000007 -0.27166667 0.16999999999999998 -0.42333334 0.4566667 -0.5133333 0.9666667 -0.7516667 3.6283334 -1.3533335 6.233334 -1.84 8.345 -0.025 0.06666667 -0.07666667 0.2966667 -0.11666668 0.51 -0.06333334 0.36333334 -0.06166667 0.3983333 0.02 0.5116667 0.175 0.24 0.38333336 0.29333333 1.9 0.49 7.966668 1.05 14.841667 1.94 22.353335 2.9416664 1.5516667 0.20666667 1.58 0.20833334 1.65 0.03666667 0.05333334 -0.135 0.15166667 -0.6 0.345 -1.6183334 0.7933333 -4.113333 1.7166668 -8.943333 2.3883336 -12.366667 0.21 -1.07 0.22 -1.1866668 0.115 -1.3666667a0.845 0.845 0 0 0 -0.255 -0.255c-0.06666667 -0.04 -0.011666667 -0.07 -0.26166666 -0.06666667zM9.416668 18.85c-0.26833337 0.04166667 -2.36 0.3416667 -4.65 0.6666667 -2.2883336 0.32333336 -4.256667 0.6233334 -4.373334 0.665 -0.35 0.12666668 -0.49 0.475 -0.32333336 0.7966666 0.10333333 0.2 0.35833334 0.3166667 1.1666667 0.54 0.10833334 0.03 0.25 0.07166667 0.3166667 0.09333334 7.566667 2.1233335 15.563333 4.466667 22.638335 6.48 0.39666667 0.11833333 0.9383332 0.32833337 1.2833334 0.32833337 0.26166666 -0.07 1.755 -0.8066666 5.136667 -2.5083333 2.7483335 -1.3833333 5.036666 -2.55 5.086667 -2.591667 0.18833335 -0.165 0.28833333 -0.5166667 0.18833335 -0.67 -0.02 -0.03 -0.28833333 -0.09166667 -0.595 -0.1366667 -6.581667 -0.965 -13.536667 -1.9833334 -19.473333 -2.85 -3.3566665 -0.48333334 -4.391667 -0.64 -4.673333 -0.7033334a5.548334 5.548334 0 0 0 -1.0783334 -0.15 3.756667 3.756667 0 0 0 -0.65 0.04zm-2.216667 5.4h-0.02666667c-0.09 0.018333333 -1.87 3.8383334 -1.87 4.011667 0 0.17833334 0.12666668 0.39666667 0.28 0.47833333 0.16833336 0.09166667 0.275 0.09333334 0.52 0.008333333 0.7416667 -0.2316667 1.53 -0.48833334 2.266667 -0.7083334 2.1933334 -0.6583334 2.2283335 -0.6716667 2.461667 -0.915 0.19166668 -0.2 0.5466667 -0.9366668 0.65 -1.3516668a1.3383334 1.3383334 0 0 1 0.095 -0.25666665c0.03333333 -0.05833334 0.05 -0.10833334 0.04 -0.10833334 -1.28 -0.33 -2.6083334 -0.6916667 -3.82 -1.0233334a4.911667 4.911667 0 0 0 -0.5966667 -0.135zm22.533335 3.0716668c-0.11666668 0.06666667 -0.4516667 0.25833336 -0.7466667 0.42333334 -0.8016666 0.485 -1.5616668 0.9883333 -2.41 1.3883334 -0.6883334 0.4316667 -0.99 0.525 -1.335 0.41333333a15.008335 15.008335 0 0 0 -1.31 -0.33999999999999997 0.12666668 0.12666668 0 0 0 -0.11166668 0.08333334c-0.38333336 1.0716668 -0.845 2.325 -1.2333334 3.421667 -0.14333334 0.3866667 -0.3933333 1.2783333 -0.39 1.3866667 0.0033333335 0.10666667 0.23666666 0.3266667 0.4166667 0.3933333a0.9183334 0.9183334 0 0 0 0.385 0.045c2.0949999999999998 -0.85 3.6916664 -1.9166665 5.473334 -2.85 0.545 -0.285 0.745 -0.48333334 0.8233334 -0.82 0.15666668 -0.6783333 0.30333334 -1.346667 0.44833336 -2 0.305 -1.3533335 0.32333336 -1.48 0.24666667 -1.6016666a0.06333334 0.06333334 0 0 0 -0.0583334 -0.033333c-0.09 0.02 -0.133333 0.06 -0.196666 0.09z"
          fill="#ffffff"/>
</svg>